#!OML:ASF E:\id_vita\Project 1\Capture day 1\Session 1\Male1.ASF
:FULLY-SPECIFIED
:DEGREES
681
root -23.67 14.6991 -3.61232 544.518 -33.7128 -536.133
lowerback 5.58454 -3.33678 -8.74033
upperback 3.49847 -5.17649 -3.69854
thorax 0.922173 -2.83293 1.26167
lowerneck -4.62371 -0.851411 1.47509
upperneck -24.9248 -2.94424 4.70621
head -6.80454 -2.98252 1.53462
rclavicle 4.21423e-014 -1.90833e-014
rhumerus -29.4254 3.65166 -93.5906
rradius 32.6276
rwrist 2.70891
rhand -19.0957 36.3129
rfingers 7.12502
rthumb 7.21275 6.45584
lclavicle 4.21423e-014 -1.90833e-014
lhumerus -16.6219 16.0723 76.336
lradius 19.6071
lwrist -6.79863
lhand -12.6866 47.9756
lfingers 7.12502
lthumb 13.3953 77.525
rfemur -39.4796 -5.44763 30.1636
rtibia 56.1498
rfoot -22.5187 1.60817
rtoes 23.126
lfemur -13.1389 14.1828 -18.2806
ltibia 51.8734
lfoot -40.6656 -8.74467
ltoes 38.2105
682
root -23.6697 14.6943 -3.62479 543.991 -33.8196 -535.541
lowerback 5.80827 -3.38538 -8.32951
upperback 3.55115 -5.23149 -3.55649
thorax 0.832643 -2.84871 1.20166
lowerneck -4.56948 -0.8543 1.45979
upperneck -24.8828 -2.929 4.74446
head -6.79896 -2.97218 1.54847
rclavicle -1.90833e-014 4.45278e-014
rhumerus -29.4622 4.3521 -93.7876
rradius 32.7146
rwrist 2.13635
rhand -19.2361 36.1023
rfingers 7.12502
rthumb 7.0772 6.24061
lclavicle -1.90833e-014 4.45278e-014
lhumerus -16.6258 15.952 76.2595
lradius 19.5377
lwrist -6.72645
lhand -12.0263 47.098
lfingers 7.12502
lthumb 14.0316 76.6044
rfemur -39.1563 -5.42444 30.7203
rtibia 56.0561
rfoot -22.5456 1.32802
rtoes 22.8162
lfemur -12.9439 14.2046 -17.6039
ltibia 52.0001
lfoot -40.9313 -8.4877
ltoes 37.22
683
root -23.6703 14.6888 -3.63454 543.63 -33.836 -535.093
lowerback 5.91176 -3.37355 -7.97544
upperback 3.59302 -5.19977 -3.47835
thorax 0.790611 -2.82487 1.09517
lowerneck -4.52734 -0.948556 1.41011
upperneck -24.9193 -3.03947 4.88294
head -6.81277 -3.03481 1.60847
rclavicle -4.77083e-015 -5.40694e-014
rhumerus -29.5676 4.38561 -93.87
rradius 32.938
rwrist 2.06959
rhand -19.3754 35.7832
rfingers 7.12502
rthumb 6.94274 5.91704
lclavicle -4.77083e-015 -5.40694e-014
lhumerus -16.5574 16.125 76.1581
lradius 19.4056
lwrist -6.99981
lhand -11.2447 46.5444
lfingers 7.12502
lthumb 14.7848 75.997
rfemur -38.9417 -5.37766 31.1701
rtibia 55.9157
rfoot -22.5048 0.941459
rtoes 21.7847
lfemur -12.8544 14.2535 -17.1011
ltibia 52.1629
lfoot -41.0193 -8.8748
ltoes 37.7288
684
root -23.6733 14.6941 -3.64181 543.369 -33.8581 -534.713
lowerback 5.99473 -3.31258 -7.58486
upperback 3.64154 -5.10022 -3.42886
thorax 0.75614 -2.76776 0.934851
lowerneck -4.60654 -1.04257 1.42927
upperneck -24.998 -3.19024 4.90468
head -6.82303 -3.11983 1.61992
rclavicle 1.76521e-013 -1.90833e-014
rhumerus -29.6119 3.9696 -93.8262
rradius 33.1412
rwrist 2.19325
rhand -19.4946 35.5653
rfingers 7.12502
rthumb 6.8277 5.69543
lclavicle 1.76521e-013 -1.90833e-014
lhumerus -16.403 16.3913 76.1182
lradius 19.3391
lwrist -7.51223
lhand -10.8474 46.9536
lfingers 7.12502
lthumb 15.1675 76.3777
rfemur -38.7981 -5.2467 31.4295
rtibia 55.8488
rfoot -22.4764 1.48062
rtoes 24.1787
lfemur -12.8036 14.2711 -16.6968
ltibia 52.2587
lfoot -40.8917 -9.14936
ltoes 38.1334
685
root -23.6815 14.6895 -3.64846 543.256 -33.8557 -534.488
lowerback 5.9984 -3.36569 -7.40934
upperback 3.6318 -5.15099 -3.30021
thorax 0.743895 -2.78632 0.974008
lowerneck -4.59827 -0.993507 1.35994
upperneck -25.0157 -3.14452 4.79243
head -6.83187 -3.0837 1.594
rclavicle 3.89618e-014 5.40694e-014
rhumerus -29.634 4.20175 -93.7714
rradius 33.1894
rwrist 2.12276
rhand -19.4285 35.5428
rfingers 7.12502
rthumb 6.89153 5.67498
lclavicle 3.89618e-014 5.40694e-014
lhumerus -16.4114 17.0525 76.0785
lradius 19.2027
lwrist -8.02904
lhand -11.1401 47.5055
lfingers 7.12502
lthumb 14.8855 76.9507
rfemur -38.7652 -5.2937 31.6824
rtibia 55.843
rfoot -22.5466 0.790849
rtoes 21.4203
lfemur -12.7864 14.3376 -16.4858
ltibia 52.3017
lfoot -40.7172 -9.39342
ltoes 38.765
686
root -23.6929 14.6862 -3.65508 543.562 -33.7874 -534.8
lowerback 5.83464 -3.39536 -7.66629
upperback 3.58643 -5.18945 -3.31827
thorax 0.812745 -2.81053 1.08587
lowerneck -4.40862 -0.898058 1.3994
upperneck -25.1013 -3.01532 4.68406
head -6.89707 -3.01713 1.55267
rclavicle 2.62396e-014 4.13472e-014
rhumerus -29.5906 4.52727 -93.8232
rradius 33.1342
rwrist 2.0254
rhand -19.352 35.6437
rfingers 7.12502
rthumb 6.96538 5.77833
lclavicle 2.62396e-014 4.13472e-014
lhumerus -16.3637 17.788 75.9957
lradius 18.8974
lwrist -8.67759
lhand -11.5005 47.6797
lfingers 7.12502
lthumb 14.5383 77.1503
rfemur -38.9272 -5.20444 31.3716
rtibia 55.947
rfoot -22.5836 0.78024
rtoes 21.3059
lfemur -12.8521 14.3939 -16.8541
ltibia 52.2621
lfoot -40.6601 -9.82943
ltoes 40.061
687
root -23.7016 14.6826 -3.65846 543.937 -33.7165 -535.317
lowerback 5.70133 -3.38539 -8.05537
upperback 3.5959 -5.19177 -3.42251
thorax 0.923072 -2.82533 1.17888
lowerneck -4.25802 -0.828868 1.41061
upperneck -25.215 -2.91667 4.66017
head -6.9625 -2.97331 1.54505
rclavicle -1.74931e-014 6.99722e-014
rhumerus -29.4817 4.65612 -93.8988
rradius 33.1617
rwrist 1.97846
rhand -19.5058 35.806
rfingers 7.12502
rthumb 6.81694 5.93574
lclavicle -1.74931e-014 6.99722e-014
lhumerus -16.2477 18.6043 75.8699
lradius 18.6988
lwrist -9.5941
lhand -10.9252 47.0802
lfingers 7.12502
lthumb 15.0926 76.51
rfemur -39.0744 -5.05506 30.8402
rtibia 56.0869
rfoot -22.6173 0.874985
rtoes 21.5902
lfemur -12.8674 14.3903 -17.4013
ltibia 52.2027
lfoot -40.716 -9.75837
ltoes 40.2131
688
root -23.7048 14.6817 -3.6636 543.985 -33.6947 -535.503
lowerback 5.72604 -3.35769 -8.24334
upperback 3.67749 -5.16953 -3.43806
thorax 1.00845 -2.82558 1.26142
lowerneck -4.25521 -0.822697 1.32529
upperneck -25.322 -2.9219 4.67569
head -6.99665 -2.97845 1.56862
rclavicle 7.71285e-014 -2.8625e-014
rhumerus -29.361 4.63788 -93.8761
rradius 33.2685
rwrist 1.9935
rhand -19.5311 36.0039
rfingers 7.12502
rthumb 6.79252 6.13281
lclavicle 7.71285e-014 -2.8625e-014
lhumerus -16.0886 18.9821 75.8428
lradius 18.5892
lwrist -10.1315
lhand -10.6042 46.3543
lfingers 7.12502
lthumb 15.4018 75.7606
rfemur -39.0348 -4.95605 30.6504
rtibia 56.221
rfoot -22.7013 0.688366
rtoes 21.0418
lfemur -12.7595 14.4126 -17.5271
ltibia 52.1368
lfoot -40.6974 -9.29743
ltoes 39.0779
689
root -23.7086 14.6821 -3.66935 544.117 -33.6825 -535.702
lowerback 5.72621 -3.36294 -8.46613
upperback 3.66438 -5.19032 -3.4409
thorax 1.01706 -2.84077 1.38018
lowerneck -4.19339 -0.831074 1.24773
upperneck -25.3312 -2.93014 4.66373
head -7.00879 -2.97297 1.57945
rclavicle 9.54166e-015 -2.22639e-014
rhumerus -29.3706 4.5539 -93.8361
rradius 33.3219
rwrist 2.13935
rhand -19.3449 36.1317
rfingers 7.12502
rthumb 6.97223 6.26649
lclavicle 9.54166e-015 -2.22639e-014
lhumerus -16.0578 18.8436 75.8798
lradius 18.4721
lwrist -9.97525
lhand -11.2107 46.461
lfingers 7.12502
lthumb 14.8175 75.9112
rfemur -39.0697 -4.92374 30.4814
rtibia 56.3124
rfoot -22.7616 0.579007
rtoes 20.7874
lfemur -12.7562 14.4191 -17.6872
ltibia 52.0958
lfoot -40.6907 -9.12063
ltoes 38.4203
690
root -23.7167 14.6762 -3.67352 544.263 -33.6132 -535.953
lowerback 5.73798 -3.36542 -8.6594
upperback 3.66418 -5.20899 -3.46545
thorax 1.02768 -2.85552 1.46079
lowerneck -4.39698 -0.834595 1.12754
upperneck -25.1776 -2.93363 4.71222
head -6.92012 -2.96218 1.60739
rclavicle 6.83819e-014 -2.8625e-014
rhumerus -29.2955 4.50277 -93.784
rradius 33.2662
rwrist 2.31495
rhand -19.2393 36.1084
rfingers 7.12502
rthumb 7.07411 6.24659
lclavicle 6.83819e-014 -2.8625e-014
lhumerus -15.9824 18.7808 75.9374
lradius 18.3572
lwrist -9.73776
lhand -11.5189 46.4744
lfingers 7.12502
lthumb 14.5206 75.9463
rfemur -39.091 -4.94915 30.2759
rtibia 56.3794
rfoot -22.8209 0.392615
rtoes 19.9282
lfemur -12.6804 14.4521 -17.9516
ltibia 52.0705
lfoot -40.8895 -8.91018
ltoes 37.8038
691
root -23.723 14.6702 -3.68052 543.987 -33.5592 -535.741
lowerback 5.85866 -3.33702 -8.44528
upperback 3.71223 -5.16971 -3.41865
thorax 0.991516 -2.83212 1.39886
lowerneck -4.46433 -0.89403 0.967993
upperneck -25.1086 -2.99752 4.824
head -6.87958 -2.98396 1.67006
rclavicle -1.03368e-014 3.81667e-014
rhumerus -29.2479 4.48338 -93.7379
rradius 33.1893
rwrist 2.42577
rhand -19.2173 36.0228
rfingers 7.12502
rthumb 7.09543 6.16174
lclavicle -1.03368e-014 3.81667e-014
lhumerus -15.9521 19.0375 75.8995
lradius 18.259
lwrist -9.91759
lhand -11.3662 46.1885
lfingers 7.12502
lthumb 14.6677 75.6497
rfemur -38.8797 -4.89364 30.4725
rtibia 56.4139
rfoot -22.9396 0.127025
rtoes 19.4129
lfemur -12.4208 14.5252 -17.7092
ltibia 52.0681
lfoot -41.1033 -8.76624
ltoes 37.0861
692
root -23.728 14.6719 -3.68959 543.835 -33.5961 -535.575
lowerback 5.85107 -3.34818 -8.29932
upperback 3.76274 -5.17157 -3.38787
thorax 1.03788 -2.83301 1.34823
lowerneck -4.4408 -0.948719 0.917827
upperneck -25.1136 -3.06805 4.85809
head -6.88226 -3.0163 1.69317
rclavicle 5.48646e-014 -3.81667e-014
rhumerus -29.1737 4.41527 -93.7273
rradius 33.1348
rwrist 2.52333
rhand -19.2329 36.0553
rfingers 7.12502
rthumb 7.08029 6.1937
lclavicle 5.48646e-014 -3.81667e-014
lhumerus -15.9124 19.3452 75.8018
lradius 18.1765
lwrist -10.1982
lhand -11.3185 46.3381
lfingers 7.12502
lthumb 14.7136 75.7959
rfemur -38.7805 -4.84403 30.5831
rtibia 56.4487
rfoot -23.0406 0.388287
rtoes 20.9758
lfemur -12.3209 14.4863 -17.5089
ltibia 52.0694
lfoot -41.0905 -8.93006
ltoes 37.2131
693
root -23.736 14.6699 -3.693 544.037 -33.6455 -535.8
lowerback 5.81823 -3.40017 -8.46517
upperback 3.74208 -5.24796 -3.40653
thorax 1.05507 -2.87448 1.41934
lowerneck -4.59853 -0.923585 0.983042
upperneck -25.0124 -3.06216 4.7399
head -6.82587 -3.00757 1.63743
rclavicle 3.81667e-014 -4.45278e-014
rhumerus -29.085 4.55152 -93.7334
rradius 33.0473
rwrist 2.46044
rhand -19.3381 35.8823
rfingers 7.12502
rthumb 6.97874 6.01737
lclavicle 3.81667e-014 -4.45278e-014
lhumerus -15.8725 19.5077 75.7475
lradius 18.0685
lwrist -10.2369
lhand -11.3795 46.7155
lfingers 7.12502
lthumb 14.6549 76.1776
rfemur -38.8888 -4.97995 30.3818
rtibia 56.4797
rfoot -23.061 0.316946
rtoes 20.0242
lfemur -12.3964 14.3506 -17.762
ltibia 52.0838
lfoot -41.0541 -9.07438
ltoes 37.6234
694
root -23.745 14.6743 -3.69507 543.992 -33.6547 -535.649
lowerback 5.89026 -3.4286 -8.2801
upperback 3.63592 -5.28307 -3.38483
thorax 0.891921 -2.87711 1.35421
lowerneck -4.4864 -0.897188 1.19119
upperneck -24.9411 -3.02472 4.5877
head -6.82849 -2.98601 1.55034
rclavicle 5.96354e-014 5.40694e-014
rhumerus -29.159 4.67262 -93.8101
rradius 32.8858
rwrist 2.35783
rhand -19.4283 35.6777
rfingers 7.12502
rthumb 6.89172 5.8099
lclavicle 5.96354e-014 5.40694e-014
lhumerus -16.0022 19.6225 75.5941
lradius 17.9507
lwrist -10.316
lhand -11.8792 47.7143
lfingers 7.12502
lthumb 14.1734 77.2108
rfemur -38.9038 -5.00565 30.4656
rtibia 56.5101
rfoot -23.0961 0.695736
rtoes 21.1997
lfemur -12.4074 14.237 -17.6598
ltibia 52.085
lfoot -41.058 -9.2196
ltoes 38.007
695
root -23.7514 14.676 -3.69994 544.106 -33.5964 -535.643
lowerback 5.80811 -3.46119 -8.27461
upperback 3.60093 -5.31567 -3.37306
thorax 0.904649 -2.89139 1.35966
lowerneck -4.54717 -0.829923 1.27637
upperneck -24.8457 -2.93701 4.51483
head -6.79106 -2.94031 1.50454
rclavicle 1.82882e-014 7.63333e-014
rhumerus -29.0823 4.82131 -93.8736
rradius 32.7864
rwrist 2.38016
rhand -19.4564 35.7949
rfingers 7.12502
rthumb 6.86461 5.9262
lclavicle 1.82882e-014 7.63333e-014
lhumerus -16.0223 20.1728 75.4541
lradius 17.8867
lwrist -10.678
lhand -10.6996 45.8103
lfingers 7.12502
lthumb 15.3099 75.2236
rfemur -39.0117 -4.99178 30.5145
rtibia 56.5518
rfoot -23.1276 0.311093
rtoes 19.8407
lfemur -12.497 14.19 -17.7044
ltibia 52.0722
lfoot -40.9693 -9.15362
ltoes 38.334
